<mxfile host="app.diagrams.net" modified="2024-07-21T22:13:47.921Z" agent="Mozilla/5.0 (Windows NT 10.0; Win64; x64) AppleWebKit/537.36 (KHTML, like Gecko) Chrome/126.0.0.0 Safari/537.36" etag="ICV2A1YBXwQaIrdwJXJw" version="24.7.1" type="github">
  <diagram name="Page-1" id="lMpovr1ZW-8dUclahfzU">
    <mxGraphModel dx="2074" dy="1106" grid="1" gridSize="10" guides="1" tooltips="1" connect="1" arrows="1" fold="1" page="1" pageScale="1" pageWidth="850" pageHeight="1100" math="0" shadow="0">
      <root>
        <mxCell id="0" />
        <mxCell id="1" parent="0" />
        <mxCell id="KaycqL6whVfcNd-fFv4y-3" value="&lt;font style=&quot;font-size: 16px;&quot;&gt;Priza perete&lt;/font&gt;" style="rounded=1;whiteSpace=wrap;html=1;" vertex="1" parent="1">
          <mxGeometry x="140" y="110" width="120" height="60" as="geometry" />
        </mxCell>
        <mxCell id="KaycqL6whVfcNd-fFv4y-5" value="" style="shape=flexArrow;endArrow=classic;startArrow=classic;html=1;rounded=0;" edge="1" parent="1">
          <mxGeometry width="100" height="100" relative="1" as="geometry">
            <mxPoint x="90" y="270" as="sourcePoint" />
            <mxPoint x="190" y="170" as="targetPoint" />
          </mxGeometry>
        </mxCell>
        <mxCell id="KaycqL6whVfcNd-fFv4y-8" value="&lt;font style=&quot;font-size: 17px;&quot;&gt;Prelungitor PC&lt;/font&gt;" style="rounded=1;whiteSpace=wrap;html=1;" vertex="1" parent="1">
          <mxGeometry x="40" y="270" width="120" height="60" as="geometry" />
        </mxCell>
        <mxCell id="KaycqL6whVfcNd-fFv4y-9" value="" style="html=1;shadow=0;dashed=0;align=center;verticalAlign=middle;shape=mxgraph.arrows2.twoWayArrow;dy=0.65;dx=22;" vertex="1" parent="1">
          <mxGeometry x="160" y="270" width="320" height="60" as="geometry" />
        </mxCell>
        <mxCell id="KaycqL6whVfcNd-fFv4y-10" value="&lt;font style=&quot;font-size: 16px;&quot;&gt;Prelungitor AC&lt;/font&gt;" style="rounded=1;whiteSpace=wrap;html=1;" vertex="1" parent="1">
          <mxGeometry x="480" y="270" width="170" height="60" as="geometry" />
        </mxCell>
        <mxCell id="KaycqL6whVfcNd-fFv4y-15" value="" style="shape=flexArrow;endArrow=classic;startArrow=classic;html=1;rounded=0;" edge="1" parent="1">
          <mxGeometry width="100" height="100" relative="1" as="geometry">
            <mxPoint x="99.5" y="470" as="sourcePoint" />
            <mxPoint x="99.5" y="330" as="targetPoint" />
          </mxGeometry>
        </mxCell>
        <mxCell id="KaycqL6whVfcNd-fFv4y-17" value="&lt;font style=&quot;font-size: 24px;&quot;&gt;PC&lt;/font&gt;" style="ellipse;whiteSpace=wrap;html=1;" vertex="1" parent="1">
          <mxGeometry x="40" y="470" width="120" height="80" as="geometry" />
        </mxCell>
        <mxCell id="KaycqL6whVfcNd-fFv4y-18" value="&lt;font style=&quot;font-size: 20px;&quot;&gt;AC&lt;/font&gt;" style="ellipse;whiteSpace=wrap;html=1;" vertex="1" parent="1">
          <mxGeometry x="520" y="470" width="120" height="80" as="geometry" />
        </mxCell>
        <mxCell id="KaycqL6whVfcNd-fFv4y-19" value="" style="shape=flexArrow;endArrow=classic;startArrow=classic;html=1;rounded=0;exitX=0.5;exitY=0;exitDx=0;exitDy=0;" edge="1" parent="1" source="KaycqL6whVfcNd-fFv4y-18">
          <mxGeometry width="100" height="100" relative="1" as="geometry">
            <mxPoint x="579.5" y="450" as="sourcePoint" />
            <mxPoint x="579.5" y="330" as="targetPoint" />
          </mxGeometry>
        </mxCell>
      </root>
    </mxGraphModel>
  </diagram>
</mxfile>
